<?xml version="1.0" encoding="UTF-8" standalone="no"?>
<svg
   xmlns:dc="http://purl.org/dc/elements/1.1/"
   xmlns:cc="http://creativecommons.org/ns#"
   xmlns:rdf="http://www.w3.org/1999/02/22-rdf-syntax-ns#"
   xmlns:svg="http://www.w3.org/2000/svg"
   xmlns="http://www.w3.org/2000/svg"
   xml:space="preserve"
   enable-background="new 0 0 310.821 261.348"
   viewBox="0 0 262.1603 213.06949"
   height="213.06949"
   width="262.16031"
   y="0px"
   x="0px"
   id="svg4139"
   version="1.1"><metadata
     id="metadata12"><rdf:RDF><cc:Work
         rdf:about=""><dc:format>image/svg+xml</dc:format><dc:type
           rdf:resource="http://purl.org/dc/dcmitype/StillImage" /><dc:title></dc:title></cc:Work></rdf:RDF></metadata><defs
     id="defs10" /><g
     transform="translate(-183.21098,-361.22761)"
     id="layer1"><path
       style="fill:none;stroke:#ffffff;stroke-width:6;stroke-linecap:round;stroke-opacity:1"
       d="m 255.618,571.25437 c 0,-0.042 0.002,-92.83637 0.006,-92.87837 0.003,-0.042 0.008,-0.085 0.015,-0.128 0.006,-0.043 0.015,-0.087 0.025,-0.131 0.01,-0.043 0.022,-0.086 0.036,-0.13 0.014,-0.044 0.029,-0.087 0.047,-0.13 0.018,-0.044 0.037,-0.088 0.058,-0.131 0.021,-0.043 0.044,-0.085 0.069,-0.127 0.025,-0.043 0.052,-0.084 0.081,-0.125 0.029,-0.041 0.059,-0.082 0.092,-0.121 0.032,-0.04 0.066,-0.078 0.103,-0.117 0.036,-0.037 0.074,-0.074 0.114,-0.111 0.04,-0.035 0.082,-0.07 0.125,-0.104 0.043,-0.034 0.089,-0.066 0.136,-0.098 0.047,-0.032 0.096,-0.061 0.146,-0.089 0.05,-0.028 0.102,-0.054 0.156,-0.079 0.053,-0.025 0.108,-0.047 0.165,-0.068 0.056,-0.021 0.114,-0.041 0.174,-0.058 0.059,-0.017 0.12,-0.032 0.182,-0.046 0.062,-0.012 0.125,-0.023 0.189,-0.031 0.064,-0.009 0.129,-0.015 0.195,-0.019 0.066,-0.004 0.133,-0.005 0.201,-0.003 0.067,0.002 0.136,0.006 0.205,0.012 0.069,0.006 0.139,0.016 0.208,0.028 0.069,0.012 0.14,0.026 0.21,0.045 0.07,0.018 0.141,0.038 0.211,0.062 0.071,0.023 0.141,0.051 0.211,0.08 0.07,0.029 0.14,0.062 0.209,0.098 0.069,0.035 0.138,0.074 0.206,0.115 0.068,0.041 0.135,0.086 0.201,0.134 0.066,0.048 0.131,0.099 0.195,0.151 0.063,0.055 0.126,0.111 0.187,0.171 0.061,0.06 0.12,0.122 0.178,0.188 0.058,0.066 0.113,0.135 0.167,0.205 0.053,0.072 0.105,0.146 0.154,0.224 0.049,0.078 0.096,0.157 0.14,0.239 0.044,0.082 0.086,0.168 0.125,0.256 0.039,0.088 0.075,0.178 0.107,0.27 0.033,0.093 0.062,0.188 0.089,0.284 0.027,0.096 0.049,0.196 0.069,0.296 0.02,0.102 0.035,0.205 0.047,0.309 0.012,0.104 0.02,0.211 0.024,0.318 0.004,0.107 0.004,0.217 0,0.326 -0.004,0.109 -0.012,0.221 -0.025,0.333 -0.013,0.112 -0.03,0.225 -0.051,0.338 -0.021,0.113 -0.047,0.228 -0.078,0.341 -0.031,0.114 -0.066,0.229 -0.106,0.342 -0.04,0.114 -0.085,0.229 -0.135,0.342 -0.05,0.113 -0.104,0.225 -0.164,0.337 -0.06,0.111 -0.124,0.222 -0.193,0.331 -0.069,0.109 -0.144,0.218 -0.223,0.324 -0.08,0.105 -0.164,0.211 -0.252,0.312 -0.089,0.102 -0.183,0.202 -0.282,0.3 -0.099,0.097 -0.203,0.192 -0.311,0.284 -0.108,0.092 -0.222,0.181 -0.339,0.266 -0.118,0.086 -0.24,0.168 -0.367,0.246 -0.127,0.078 -0.258,0.152 -0.393,0.222 -0.135,0.07 -0.274,0.136 -0.418,0.196 -0.144,0.06 -0.291,0.117 -0.442,0.168 -0.151,0.051 -0.306,0.097 -0.464,0.137 -0.158,0.041 -0.319,0.076 -0.484,0.104 -0.164,0.028 -0.332,0.052 -0.502,0.069 -0.17,0.017 -0.343,0.027 -0.518,0.031 -0.175,0.004 -0.352,0.002 -0.53,-0.008 -0.178,-0.01 -0.359,-0.025 -0.541,-0.049 -0.182,-0.024 -0.365,-0.055 -0.548,-0.092 -0.184,-0.038 -0.368,-0.083 -0.552,-0.136 -0.185,-0.054 -0.369,-0.113 -0.553,-0.182 -0.184,-0.067 -0.368,-0.144 -0.55,-0.228 -0.182,-0.084 -0.364,-0.176 -0.544,-0.275 -0.18,-0.1 -0.358,-0.207 -0.534,-0.322 -0.176,-0.115 -0.35,-0.238 -0.521,-0.371 -0.17,-0.131 -0.338,-0.27 -0.502,-0.418 -0.164,-0.146 -0.324,-0.303 -0.48,-0.465 -0.156,-0.164 -0.308,-0.334 -0.454,-0.513 -0.146,-0.179 -0.288,-0.364 -0.424,-0.558 -0.136,-0.194 -0.266,-0.395 -0.39,-0.602 -0.124,-0.209 -0.241,-0.424 -0.351,-0.645 -0.11,-0.223 -0.213,-0.45 -0.308,-0.686 -0.096,-0.234 -0.183,-0.475 -0.262,-0.723 -0.079,-0.246 -0.15,-0.499 -0.211,-0.757 -0.062,-0.259 -0.114,-0.521 -0.157,-0.79 -0.043,-0.268 -0.076,-0.541 -0.099,-0.816 -0.023,-0.277 -0.036,-0.559 -0.038,-0.843 -0.002,-0.284 0.006,-0.572 0.026,-0.862 0.02,-0.291 0.051,-0.584 0.093,-0.879 0.042,-0.294 0.097,-0.59 0.163,-0.889 0.066,-0.297 0.145,-0.596 0.235,-0.895 0.09,-0.298 0.193,-0.596 0.309,-0.895 0.115,-0.297 0.243,-0.594 0.384,-0.889 0.141,-0.295 0.294,-0.588 0.461,-0.877 0.167,-0.291 0.346,-0.578 0.538,-0.86 0.192,-0.283 0.397,-0.562 0.615,-0.837 0.218,-0.273 0.449,-0.542 0.693,-0.805 0.244,-0.263 0.5,-0.519 0.769,-0.769 0.269,-0.249 0.551,-0.491 0.845,-0.725 0.293,-0.234 0.6,-0.459 0.917,-0.675 0.317,-0.216 0.647,-0.422 0.988,-0.618 0.341,-0.196 0.694,-0.38 1.057,-0.554 0.363,-0.173 0.737,-0.335 1.121,-0.484 0.384,-0.148 0.778,-0.285 1.181,-0.407 0.403,-0.123 0.816,-0.23 1.237,-0.324 0.421,-0.093 0.85,-0.172 1.287,-0.235 0.437,-0.063 0.881,-0.11 1.332,-0.141 0.451,-0.031 0.908,-0.044 1.37,-0.041 0.462,0.004 0.93,0.025 1.401,0.064 0.472,0.04 0.947,0.097 1.425,0.174 0.479,0.076 0.959,0.172 1.441,0.288 0.482,0.116 0.965,0.25 1.448,0.405 0.483,0.155 0.965,0.33 1.446,0.525 0.481,0.195 0.96,0.411 1.436,0.647 0.476,0.237 0.948,0.494 1.415,0.772 0.467,0.278 0.929,0.577 1.385,0.896 0.455,0.32 0.903,0.661 1.343,1.022 0.44,0.361 0.871,0.744 1.292,1.147 0.421,0.402 0.832,0.826 1.23,1.27 0.398,0.444 0.785,0.908 1.157,1.391 0.373,0.484 0.731,0.987 1.073,1.51 0.343,0.521 0.669,1.063 0.979,1.623 0.31,0.559 0.601,1.137 0.874,1.731 0.273,0.594 0.525,1.206 0.757,1.835 0.232,0.627 0.443,1.271 0.631,1.93 0.188,0.66 0.354,1.333 0.495,2.02 0.142,0.688 0.258,1.387 0.35,2.1 0.091,0.711 0.156,1.435 0.194,2.168 0.038,0.734 0.048,1.477 0.031,2.229 -0.018,0.752 -0.064,1.511 -0.141,2.275 -0.077,0.766 -0.183,1.537 -0.32,2.312 -0.137,0.775 -0.305,1.555 -0.504,2.335 -0.199,0.78 -0.431,1.562 -0.695,2.344 -0.264,0.78 -0.561,1.562 -0.891,2.338 -0.33,0.776 -0.692,1.55 -1.089,2.317 -0.396,0.767 -0.827,1.527 -1.291,2.279 -0.464,0.753 -0.961,1.496 -1.493,2.229 -0.532,0.731 -1.097,1.451 -1.696,2.158 -0.599,0.705 -1.232,1.396 -1.897,2.07 -0.666,0.674 -1.365,1.33 -2.096,1.967 -0.731,0.637 -1.496,1.252 -2.292,1.846 -0.795,0.592 -1.623,1.162 -2.48,1.705 -0.857,0.545 -1.746,1.062 -2.663,1.551 -0.917,0.488 -1.864,0.947 -2.837,1.375 -0.974,0.428 -1.975,0.822 -3.002,1.184 -1.027,0.362 -2.079,0.688 -3.155,0.978 -1.076,0.289 -2.175,0.541 -3.295,0.753 -1.12,0.213 -2.261,0.385 -3.421,0.514 -1.159,0.131 -2.337,0.219 -3.53,0.262 -1.193,0.043 -2.402,0.041 -3.623,-0.008 -1.221,-0.049 -2.455,-0.144 -3.697,-0.287 -1.243,-0.144 -2.494,-0.336 -3.75,-0.578 -1.256,-0.242 -2.519,-0.535 -3.783,-0.881 -1.264,-0.344 -2.529,-0.74 -3.792,-1.189 -1.263,-0.449 -2.524,-0.951 -3.778,-1.508 -1.254,-0.556 -2.502,-1.166 -3.739,-1.83 -1.237,-0.664 -2.463,-1.383 -3.674,-2.156 -1.211,-0.773 -2.407,-1.602 -3.583,-2.484 -1.176,-0.883 -2.332,-1.82 -3.464,-2.812 -1.132,-0.992 -2.239,-2.038 -3.318,-3.137 -1.079,-1.1 -2.128,-2.254 -3.144,-3.459 -1.016,-1.205 -1.998,-2.463 -2.941,-3.771 -0.943,-1.308 -1.849,-2.668 -2.71,-4.076 -0.862,-1.408 -1.68,-2.865 -2.451,-4.369 -0.771,-1.504 -1.493,-3.055 -2.164,-4.648 -0.671,-1.593 -1.288,-3.232 -1.849,-4.91 -0.561,-1.678 -1.065,-3.397 -1.507,-5.154 -0.443,-1.756 -0.824,-3.549 -1.14,-5.375 -0.316,-1.826 -0.567,-3.686 -0.749,-5.575 -0.182,-1.888 -0.293,-3.805 -0.333,-5.746 -0.04,-1.941 -0.005,-3.906 0.104,-5.89 0.11,-1.983 0.296,-3.986 0.561,-6.002 0.266,-2.016 0.61,-4.045 1.037,-6.082 0.426,-2.037 0.935,-4.081 1.527,-6.127 0.592,-2.045 1.269,-4.092 2.032,-6.134 0.763,-2.042 1.611,-4.078 2.547,-6.103 0.936,-2.024 1.959,-4.037 3.071,-6.031 1.112,-1.994 2.312,-3.969 3.6,-5.917 1.288,-1.949 2.665,-3.872 4.13,-5.761 1.465,-1.889 3.019,-3.745 4.661,-5.56 1.641,-1.815 3.37,-3.589 5.185,-5.314 1.815,-1.725 3.717,-3.402 5.702,-5.022 1.985,-1.62 4.056,-3.184 6.207,-4.685 2.151,-1.501 4.384,-2.937 6.696,-4.301 2.312,-1.364 4.701,-2.658 7.166,-3.872 2.464,-1.214 5.003,-2.35 7.611,-3.398 2.608,-1.048 5.287,-2.011 8.03,-2.879 2.743,-0.869 5.551,-1.644 8.417,-2.319 2.866,-0.675 5.792,-1.249 8.769,-1.716 2.977,-0.467 6.006,-0.827 9.081,-1.074 3.074,-0.247 6.194,-0.38 9.35,-0.394 3.156,-0.015 6.35,0.091 9.572,0.32 3.222,0.229 6.473,0.583 9.743,1.066 3.271,0.482 6.56,1.095 9.861,1.84 3.301,0.746 6.61,1.625 9.921,2.64 3.31,1.016 6.62,2.168 9.92,3.46 3.3,1.292 6.589,2.724 9.856,4.297 3.268,1.573 6.514,3.289 9.727,5.146 3.213,1.857 6.393,3.859 9.527,6.003 3.134,2.144 6.226,4.432 9.26,6.862 3.033,2.43 6.011,5.004 8.919,7.718 2.908,2.715 5.747,5.571 8.506,8.566 2.759,2.995 5.435,6.129 8.019,9.398 2.584,3.269 5.072,6.674 7.457,10.21 2.384,3.536 4.661,7.203 6.82,10.996 2.16,3.792 4.201,7.71 6.111,11.748 1.912,4.037 3.691,8.193 5.33,12.46 1.639,4.268 3.134,8.646 4.477,13.127 1.342,4.482 2.529,9.066 3.553,13.742 1.023,4.678 1.883,9.447 2.565,14.299 0.684,4.852 1.14498,9.54881 1.513,14.75142"
       id="path4694" /><text
       y="506.35205"
       x="300.86661"
       transform="scale(0.98569772,1.0145098)"
       font-size="65"
       letter-spacing="4.117"
       id="text4137"
       style="font-style:normal;font-variant:normal;font-weight:normal;font-stretch:normal;font-size:57.21883392px;line-height:0%;font-family:'Hiragino Maru Gothic Pro';-inkscape-font-specification:'Hiragino Maru Gothic Pro, Normal';text-align:start;letter-spacing:3.62417269;writing-mode:lr-tb;text-anchor:start"><tspan
         id="tspan4139"
         style="letter-spacing:1.89999986px;fill:#ffffff;fill-opacity:1">CfN</tspan></text>
<text
       id="text4141"
       y="507.02472"
       x="409.99997"
       style="font-style:normal;font-weight:normal;line-height:0%;font-family:sans-serif;letter-spacing:0px;word-spacing:0px;fill:#000000;fill-opacity:1;stroke:none;stroke-width:1px;stroke-linecap:butt;stroke-linejoin:miter;stroke-opacity:1"
       xml:space="preserve"><tspan
         style="font-size:40px;line-height:1.25"
         y="507.02472"
         x="409.99997"
         id="tspan4143"> </tspan></text>
</g></svg>