<svg xmlns="http://www.w3.org/2000/svg" version="1.1" x="0" y="0" width="300" height="261" viewBox="0 0 300 261" xml:space="preserve"><style>.s0{fill:#DE3CB6;}.s1{fill:#231F20;}</style><polygon points="18.6 50 9.4 50 9.4 8.8 0 8.8 0 0.7 28 0.7 28 8.8 18.6 8.8 18.6 50 " fill="#DE3CB6"/><polygon points="63.7 50 54.6 50 54.6 28.4 42.5 28.4 42.5 50 33.3 50 33.3 0.7 42.5 0.7 42.5 20.3 54.6 20.3 54.6 0.7 63.7 0.7 63.7 50 " fill="#DE3CB6"/><polygon points="91.3 50 69.1 50 69.1 0.7 91.3 0.7 91.3 8.6 78.3 8.6 78.3 20.4 90.4 20.4 90.4 28.3 78.3 28.3 78.3 42 91.3 42 91.3 50 " fill="#DE3CB6"/><path d="M132.2 36.4c0 4.6-1.2 8.1-3.5 10.6 -2.3 2.5-5.7 3.7-10.1 3.7 -4.3 0-7.9-0.8-11-2.5v-9.1c3.7 2.4 7.1 3.6 10.2 3.6 1.8 0 3.1-0.5 4-1.4 0.9-1 1.3-2.3 1.3-3.9 0-1.6-0.5-3.1-1.6-4.5 -1.1-1.4-2.8-2.9-5.2-4.5 -2.1-1.5-3.7-2.9-4.8-4.2 -1.1-1.3-1.9-2.8-2.5-4.5 -0.6-1.7-0.9-3.6-0.9-5.8 0-4.2 1.2-7.6 3.5-10 2.4-2.5 5.5-3.7 9.5-3.7 3.8 0 7.4 1.1 10.9 3.2l-3 7.4c-1.1-0.6-2.2-1.2-3.4-1.7 -1.2-0.5-2.4-0.7-3.8-0.7 -1.5 0-2.6 0.5-3.4 1.5 -0.8 1-1.2 2.3-1.2 4 0 1.7 0.5 3.1 1.4 4.4 1 1.2 2.6 2.6 5 4.2 3.2 2.2 5.5 4.4 6.7 6.6C131.5 31 132.2 33.5 132.2 36.4L132.2 36.4zM157 29.4l-2.6-11.5c-0.2-0.7-0.5-2.4-1.1-5.2 -0.5-2.8-0.9-4.7-1-5.6 -0.3 1.9-0.7 4.1-1.1 6.4 -0.4 2.3-1.6 7.6-3.5 15.9H157L157 29.4zM161.6 50l-2.8-12.4h-12.8L143.1 50h-9.2l12.2-49.5h12.4L170.8 50H161.6L161.6 50zM189.1 8c-2.6 0-4.7 1.5-6.2 4.6 -1.5 3.1-2.3 7.4-2.3 12.9 0 11.4 3 17.1 8.9 17.1 2.6 0 5.3-0.8 8.2-2.5v8.2c-2.4 1.6-5.5 2.4-9.2 2.4 -5.5 0-9.8-2.2-12.8-6.6 -3-4.4-4.5-10.6-4.5-18.6 0-8 1.5-14.2 4.6-18.7C178.9 2.2 183.2 0 188.6 0c1.8 0 3.5 0.3 5.2 0.7 1.7 0.5 3.4 1.4 5.3 2.6l-3 7.5c-1-0.7-2.1-1.3-3.2-1.9C191.7 8.3 190.5 8 189.1 8L189.1 8z" fill="#DE3CB6"/><polygon points="233.3 50 224.1 50 224.1 28.4 212 28.4 212 50 202.8 50 202.8 0.7 212 0.7 212 20.3 224.1 20.3 224.1 0.7 233.3 0.7 233.3 50 " fill="#DE3CB6"/><path d="M262.4 36.4c0 4.6-1.2 8.1-3.5 10.6 -2.3 2.5-5.7 3.7-10.1 3.7 -4.3 0-7.9-0.8-11-2.5v-9.1c3.7 2.4 7.1 3.6 10.2 3.6 1.8 0 3.1-0.5 4-1.4 0.9-1 1.3-2.3 1.3-3.9 0-1.6-0.5-3.1-1.6-4.5 -1.1-1.4-2.8-2.9-5.2-4.5 -2.1-1.5-3.7-2.9-4.8-4.2 -1.1-1.3-1.9-2.8-2.5-4.5 -0.6-1.7-0.9-3.6-0.9-5.8 0-4.2 1.2-7.6 3.5-10 2.4-2.5 5.5-3.7 9.5-3.7 3.8 0 7.4 1.1 10.9 3.2l-3 7.4c-1.1-0.6-2.2-1.2-3.4-1.7 -1.2-0.5-2.4-0.7-3.8-0.7 -1.5 0-2.6 0.5-3.4 1.5 -0.8 1-1.2 2.3-1.2 4 0 1.7 0.5 3.1 1.4 4.4 1 1.2 2.6 2.6 5 4.2 3.2 2.2 5.5 4.4 6.7 6.6C261.7 31 262.4 33.5 262.4 36.4L262.4 36.4zM9.8 84.3h1.8c2.3 0 3.9-0.6 5-1.8 1.1-1.2 1.7-3.3 1.7-6.1 0-2.6-0.5-4.5-1.5-5.7 -1-1.2-2.6-1.9-4.7-1.9H9.8V84.3L9.8 84.3zM27.5 76c0 5.2-1.3 9.3-4 12.1 -2.6 2.8-6.5 4.2-11.4 4.2H9.8v17.9H0.6V60.8H13.1C22.7 60.8 27.5 65.9 27.5 76L27.5 76zM42.3 83h2.4c2.2 0 3.7-0.6 4.7-1.8 0.9-1.2 1.4-3 1.4-5.5 0-2.5-0.5-4.3-1.5-5.4 -1-1.1-2.5-1.6-4.6-1.6h-2.3V83L42.3 83zM42.3 90.9v19.2h-9.2V60.8h12c5.1 0 8.8 1.2 11.2 3.6 2.4 2.4 3.6 6.1 3.6 11 0 6.2-2.1 10.6-6.3 13.1l9.5 21.6H53.3L45.5 90.9H42.3L42.3 90.9zM74 85.4c0 5.6 0.7 9.9 2.1 12.8 1.4 2.9 3.5 4.4 6.2 4.4 5.5 0 8.3-5.7 8.3-17.3 0-11.5-2.7-17.3-8.2-17.3 -2.8 0-4.9 1.5-6.3 4.4C74.7 75.4 74 79.7 74 85.4L74 85.4zM100.1 85.4c0 8.2-1.5 14.4-4.6 18.8 -3.1 4.4-7.4 6.6-13.1 6.6 -5.7 0-10.1-2.2-13.1-6.6 -3.1-4.4-4.6-10.7-4.6-18.9 0-8.2 1.5-14.4 4.6-18.8 3.1-4.3 7.5-6.5 13.2-6.5 5.7 0 10.1 2.2 13.1 6.6C98.6 70.9 100.1 77.2 100.1 85.4L100.1 85.4zM121.3 82.7h15.1v25.3c-4.3 1.8-8.8 2.7-13.6 2.7 -5.7 0-10.1-2.2-13.2-6.5 -3.1-4.4-4.6-10.6-4.6-18.8 0-7.9 1.8-14.1 5.3-18.6 3.5-4.5 8.5-6.7 14.9-6.7 3.9 0 7.7 1 11.3 3l-2.9 7.5c-2.8-1.6-5.4-2.4-7.8-2.4 -3.5 0-6.2 1.6-8.3 4.7 -2 3.1-3 7.4-3 12.7 0 5.5 0.7 9.8 2.2 12.7 1.5 2.9 3.6 4.4 6.4 4.4 1.5 0 3-0.2 4.5-0.6V90.8h-6.1V82.7L121.3 82.7zM151.6 83H154c2.2 0 3.7-0.6 4.7-1.8 0.9-1.2 1.4-3 1.4-5.5 0-2.5-0.5-4.3-1.5-5.4 -1-1.1-2.5-1.6-4.6-1.6h-2.3V83L151.6 83zM151.6 90.9v19.2h-9.2V60.8h12c5.1 0 8.8 1.2 11.3 3.6 2.4 2.4 3.6 6.1 3.6 11 0 6.2-2.1 10.6-6.3 13.1l9.5 21.6h-9.8l-7.8-19.2H151.6L151.6 90.9zM198.8 89.5l-2.6-11.5c-0.2-0.7-0.5-2.4-1.1-5.2 -0.5-2.8-0.9-4.7-1-5.6 -0.3 1.9-0.7 4.1-1.1 6.4 -0.4 2.3-1.6 7.6-3.5 15.9H198.8L198.8 89.5zM203.4 110.1l-2.8-12.4H187.7l-2.8 12.4h-9.2l12.2-49.5h12.4l12.2 49.5H203.4L203.4 110.1z" fill="#DE3CB6"/><polygon points="247.3 60.8 238.9 99.5 238.7 99.5 230.2 60.8 216.2 60.8 216.2 110.1 224.7 110.1 224.7 69.3 233.8 110.1 243.8 110.1 252.9 69.1 252.9 110.1 261.6 110.1 261.6 60.8 247.3 60.8 " fill="#DE3CB6"/><polygon points="9.7 170.2 0.6 170.2 0.6 120.9 22.7 120.9 22.7 128.8 9.7 128.8 9.7 142.5 21.8 142.5 21.8 150.4 9.7 150.4 9.7 170.2 " fill="#231F20"/><path d="M36.2 145.5c0 5.6 0.7 9.9 2.1 12.8 1.4 3 3.5 4.4 6.2 4.4 5.5 0 8.3-5.7 8.3-17.3 0-11.5-2.7-17.3-8.2-17.3 -2.8 0-4.9 1.5-6.3 4.4C36.9 135.5 36.2 139.8 36.2 145.5L36.2 145.5zM62.2 145.5c0 8.2-1.5 14.4-4.6 18.8 -3.1 4.4-7.4 6.6-13.1 6.6 -5.7 0-10.1-2.2-13.1-6.6 -3.1-4.4-4.6-10.7-4.6-18.9 0-8.2 1.5-14.4 4.6-18.8 3.1-4.3 7.5-6.5 13.2-6.5 5.7 0 10.1 2.2 13.1 6.6C60.7 131 62.2 137.3 62.2 145.5L62.2 145.5zM76.3 143.1h2.4c2.2 0 3.7-0.6 4.7-1.8 0.9-1.2 1.4-3 1.4-5.5 0-2.5-0.5-4.3-1.5-5.4 -1-1.1-2.5-1.6-4.6-1.6h-2.3V143.1L76.3 143.1zM76.3 151v19.2h-9.2v-49.3h12c5.1 0 8.8 1.2 11.2 3.6 2.4 2.4 3.6 6.1 3.6 11 0 6.2-2.1 10.6-6.3 13.1l9.5 21.6H87.4l-7.8-19.2H76.3L76.3 151zM130.8 149.6l-2.6-11.5c-0.2-0.7-0.5-2.4-1.1-5.2 -0.5-2.8-0.9-4.7-1-5.6 -0.3 1.9-0.7 4.1-1.1 6.4 -0.4 2.3-1.6 7.6-3.5 15.9H130.8L130.8 149.6zM135.3 170.2l-2.8-12.4h-12.8l-2.8 12.4h-9.2l12.2-49.5h12.4l12.2 49.5H135.3L135.3 170.2zM157.9 143.1h2.4c2.2 0 3.7-0.6 4.7-1.8 1-1.2 1.4-3 1.4-5.5 0-2.5-0.5-4.3-1.5-5.4 -1-1.1-2.5-1.6-4.6-1.6h-2.3V143.1L157.9 143.1zM157.9 151v19.2h-9.2v-49.3h12c5.1 0 8.8 1.2 11.3 3.6 2.4 2.4 3.6 6.1 3.6 11 0 6.2-2.1 10.6-6.3 13.1l9.5 21.6h-9.8l-7.8-19.2H157.9L157.9 151z" fill="#231F20"/><polygon points="196.9 170.2 187.8 170.2 187.8 128.9 178.4 128.9 178.4 120.9 206.4 120.9 206.4 128.9 196.9 128.9 196.9 170.2 " fill="#231F20"/><path d="M233.4 156.6c0 4.6-1.2 8.1-3.5 10.6 -2.3 2.5-5.7 3.7-10.1 3.7 -4.3 0-7.9-0.8-11-2.5v-9.1c3.7 2.4 7.1 3.6 10.2 3.6 1.8 0 3.1-0.5 4-1.4 0.9-1 1.3-2.3 1.3-3.9 0-1.6-0.5-3.1-1.6-4.5 -1.1-1.4-2.8-2.9-5.2-4.5 -2.1-1.5-3.7-2.9-4.8-4.2 -1.1-1.3-1.9-2.8-2.5-4.5 -0.6-1.7-0.9-3.6-0.9-5.8 0-4.2 1.2-7.6 3.5-10 2.4-2.5 5.5-3.7 9.5-3.7 3.8 0 7.4 1.1 10.9 3.2l-3 7.4c-1.1-0.6-2.2-1.2-3.4-1.7 -1.2-0.5-2.4-0.7-3.8-0.7 -1.5 0-2.6 0.5-3.4 1.5 -0.8 1-1.2 2.3-1.2 4 0 1.7 0.5 3.1 1.4 4.4 1 1.2 2.6 2.6 5 4.2 3.2 2.2 5.5 4.4 6.7 6.6C232.7 151.1 233.4 153.7 233.4 156.6L233.4 156.6z" fill="#231F20"/><polygon points="0.6 230.3 0.6 181 9.3 181 9.3 230.3 0.6 230.3 " fill="#231F20"/><path d="M67.5 181v34.7l-14.8-34.7h-2.8 -8.4 0v26.9c0 0.1 0 0.2 0 0.3v7.5l-14.8-34.7H15.3v49.3h8.5v-34.7l14.8 34.8h2.8 8.4 0.1v-26.9c0-0.9 0-1.7-0.1-2.6v-5.4l14.9 34.9h11.2v-49.3H67.5L67.5 181zM89.5 205.5c0 5.6 0.7 9.9 2.1 12.8s3.5 4.4 6.2 4.4c5.5 0 8.3-5.7 8.3-17.3 0-11.5-2.7-17.3-8.2-17.3 -2.8 0-4.9 1.5-6.3 4.4S89.5 199.9 89.5 205.5L89.5 205.5zM115.5 205.5c0 8.2-1.5 14.4-4.6 18.8 -3.1 4.4-7.4 6.6-13.1 6.6 -5.7 0-10.1-2.2-13.1-6.6 -3.1-4.4-4.6-10.7-4.6-18.9 0-8.2 1.5-14.4 4.6-18.8 3.1-4.3 7.5-6.5 13.2-6.5 5.7 0 10.1 2.2 13.1 6.6C114 191.1 115.5 197.4 115.5 205.5L115.5 205.5zM141.2 181h9.2l-11.6 49.3h-11.7l-11.5-49.3h9.2l6.4 30.1c0.6 2.6 1.2 6.2 1.7 11 0.5-4.1 1.1-7.7 1.8-11L141.2 181 141.2 181zM168.4 209.7l-2.6-11.5c-0.2-0.7-0.5-2.4-1.1-5.2 -0.5-2.8-0.9-4.7-1-5.6 -0.3 1.9-0.7 4.1-1.1 6.4 -0.4 2.3-1.6 7.6-3.5 15.9H168.4L168.4 209.7zM173 230.3l-2.8-12.4H157.3l-2.8 12.4h-9.2l12.2-49.5h12.4l12.2 49.5H173L173 230.3z" fill="#231F20"/><polygon points="197.5 230.3 188.3 230.3 188.3 189 178.9 189 178.9 181 206.9 181 206.9 189 197.5 189 197.5 230.3 " fill="#231F20"/><polygon points="211.8 230.3 211.8 181 220.5 181 220.5 230.3 211.8 230.3 " fill="#231F20"/><path d="M234.8 205.5c0 5.6 0.7 9.9 2.1 12.8 1.4 3 3.5 4.4 6.2 4.4 5.5 0 8.3-5.7 8.3-17.3 0-11.5-2.7-17.3-8.2-17.3 -2.8 0-4.9 1.5-6.3 4.4C235.5 195.6 234.8 199.9 234.8 205.5L234.8 205.5zM260.9 205.5c0 8.2-1.5 14.4-4.6 18.8 -3.1 4.4-7.4 6.6-13.1 6.6 -5.7 0-10.1-2.2-13.1-6.6 -3.1-4.4-4.6-10.7-4.6-18.9 0-8.2 1.5-14.4 4.6-18.8 3.1-4.3 7.5-6.5 13.2-6.5 5.7 0 10.1 2.2 13.1 6.6C259.4 191.1 260.9 197.4 260.9 205.5L260.9 205.5z" fill="#231F20"/><polygon points="291.6 180.7 291.6 215.4 276.7 180.7 265.5 180.7 265.5 230 274 230 274 195.3 288.8 230 300 230 300 180.7 291.6 180.7 " fill="#231F20"/><path d="M3.9 250.9c0 2.6 0.7 4.6 3.5 4.6 2.6 0 3.9-1.7 3.9-4.7v-5.2c0-0.4-0.1-0.7-0.1-1 -0.1-0.7-0.7-0.9-1.6-1v-0.5H14v0.5c-0.9 0.1-1.5 0.4-1.6 1 0 0.3-0.1 0.6-0.1 1v5.3c0 4-2.6 5.5-5 5.5 -4 0-5.2-2-5.2-5.4v-5.6c0-1.7 0.1-1.6-1.6-1.9v-0.5h5.1v0.5c-1.7 0.2-1.6 0.1-1.6 1.9V250.9L3.9 250.9zM24.6 256.2c-2.3-2.7-4.7-5.6-7-8.4v6.4c0 0.3 0.1 0.6 0.1 0.8 0.1 0.5 0.6 0.7 1.5 0.8v0.4h-3.5v-0.4c0.7-0.1 1.2-0.3 1.3-0.8 0-0.2 0.1-0.5 0.1-0.8v-6.8c-0.4-0.5-0.8-1-1.7-1v-0.4h2.6c2.2 2.6 4.4 5.3 6.6 7.9h0v-6c0-0.3-0.1-0.5-0.1-0.8 -0.1-0.5-0.6-0.7-1.5-0.8v-0.4h3.6v0.4c-0.7 0.1-1.2 0.3-1.2 0.8 0 0.2-0.1 0.5-0.1 0.8v8.2H24.6L24.6 256.2zM32.1 254.4c0 1.4-0.1 1.3 1.3 1.4v0.4h-3.9v-0.4c1.3-0.2 1.3-0.1 1.3-1.4v-6.5c0-1.3 0.1-1.3-1.2-1.4v-0.4h3.9v0.4c-1.3 0.2-1.2 0.1-1.2 1.4V254.4L32.1 254.4zM39.5 246.5c-0.8 0-1.4 0.2-0.9 1.6 0.6 1.7 1.4 4.2 2.2 6.4 0.9-2.2 1.8-4.4 2.7-6.7 0.4-0.9 0-1.4-1-1.4v-0.4h3.1v0.4c-0.4 0-0.9 0.2-1.2 0.9 -1.2 3-2.4 5.9-3.7 8.9h-0.7c-0.9-2.5-1.9-5.3-2.7-7.8 -0.5-1.5-1-2-1.7-2v-0.4h3.9V246.5L39.5 246.5zM47.8 255.9c1.3-0.2 1.3-0.1 1.3-1.4v-6.5c0-1.3 0.1-1.3-1.2-1.4v-0.4h6.5v2.3h-0.4c-0.1-1.1-0.4-1.9-1.5-1.9h-2v4.1h1.2c0.9 0 1.3-0.4 1.3-1.3h0.4v3.1h-0.4c0-0.8-0.4-1.4-1.3-1.4h-1.2v3.3c0 1.2 0.6 1.3 1.9 1.3 2.1 0 2-0.6 2.7-2.1h0.4l-0.4 2.6h-7.1V255.9L47.8 255.9zM60.2 251.3h1.2c1.3 0 1.8-1 1.8-2.6 0-1.6-0.9-2.1-1.9-2.1h-1.1V251.3L60.2 251.3zM57.6 246.1h4.2c1.5 0 2.9 0.8 2.9 2.5 0 1.5-0.9 2.5-2 3l1.4 2.2c0.7 1.1 1.5 2.1 2 2.4v0.2h-1.5c-0.9 0-1.3-1.6-3.1-4.5h-1.4v2.7c0 1.4-0.1 1.3 1.3 1.4v0.4h-3.9v-0.4c1.3-0.2 1.3-0.1 1.3-1.4v-6.5c0-1.3 0.1-1.3-1.2-1.4V246.1L57.6 246.1zM73.3 248.3c-0.1-1-0.7-1.8-1.8-1.8 -0.8 0-1.6 0.4-1.6 1.5 0 1 1 1.6 2.5 2.7 1.5 1.2 2 1.9 2 3.1 0 1.7-1.8 2.7-3.5 2.7 -0.9 0-1.7-0.2-2.5-0.5 -0.1 0-0.1-0.1-0.1-0.2v-2.1h0.4c0.2 1.6 1.2 2.2 2.3 2.2 1 0 1.9-0.8 1.9-1.8 0-0.9-0.5-1.7-2.7-3.1 -0.8-0.5-1.7-1.1-1.7-2.7 0-1.3 1.5-2.3 3.1-2.3 0.6 0 1.5 0.1 2 0.3 0.1 0 0.1 0.1 0.1 0.2v1.9H73.3L73.3 248.3zM79.7 254.4c0 1.4-0.1 1.3 1.2 1.4v0.4h-3.9v-0.4c1.3-0.2 1.3-0.1 1.3-1.4v-6.5c0-1.3 0.1-1.3-1.2-1.4v-0.4h3.9v0.4c-1.3 0.2-1.2 0.1-1.2 1.4V254.4L79.7 254.4zM88.1 254.4c0 1.4-0.1 1.3 1.3 1.4v0.4h-3.9v-0.4c1.3-0.2 1.3-0.1 1.3-1.4v-7.9h-1.3c-1.3 0-1.5 0.8-2 1.8h-0.4l0.4-2.2h8l0.4 2.2h-0.4c-0.5-1-0.8-1.7-2-1.7h-1.3V254.4L88.1 254.4zM96 255.9c1.3-0.2 1.3-0.1 1.3-1.4v-2.2L95 247.8c-0.5-0.9-0.9-1.3-1.5-1.3v-0.4h3.7v0.4c-1.1 0-1 0.6-0.6 1.3l1.8 3.6 2-3.6c0.5-0.9 0-1.3-0.8-1.3v-0.4h3v0.4c-0.4 0-0.8 0.2-1.2 0.9l-2.4 4.4c-0.1 0.3-0.2 0.7-0.2 1.1v1.6c0 1.4-0.1 1.3 1.3 1.4v0.4h-3.9V255.9L96 255.9zM115.6 249.1c0-1.9-1.2-2-1.5-2 -2 0-3.4 3.6-3.4 6.1 0 1 0.2 2.7 1.6 2.7C114.4 255.9 115.6 252.4 115.6 249.1L115.6 249.1zM109 252.8c0-2.5 2.1-6.1 5.3-6.1 2.5 0 3 1.7 3 3.4 0 2.1-1.6 6.5-5.2 6.5C109.7 256.5 109 254.5 109 252.8L109 252.8zM126.8 247.2l-0.4 0.4h-2.5c-0.9 4.5-2.4 10.4-3.5 13.3h-0.8l2.7-13.3h-1.8l0.2-0.8h1.8c1-4 4.3-4.4 5.1-4.4 0.4 0 1.3 0.1 1.6 0.3l-0.2 1.2 -0.5 0.2c-0.3-0.5-0.9-1.1-1.6-1.1 -1.1 0-2 0.8-2.4 2.8l-0.2 0.9h2.8L126.8 247.2 126.8 247.2zM138.2 253.9c0 1.7-0.1 1.7 1.6 1.9v0.5h-5v-0.5c1.7-0.2 1.6-0.1 1.6-1.9v-8.4c0-1.7 0.1-1.6-1.6-1.9v-0.5h4.9c3.1 0 4.7 1.2 4.7 3.5 0 2.7-2.4 4.2-5.3 4v-0.4c2.4 0 3.4-1.4 3.4-3.4 0-2.1-1-3.1-3.1-3.1h-1.1V253.9L138.2 253.9zM146.9 255.9c1.3-0.2 1.3-0.1 1.3-1.4v-6.5c0-1.3 0.1-1.3-1.2-1.4v-0.4h6.5v2.3h-0.4c-0.1-1.1-0.4-1.9-1.5-1.9h-2v4.1h1.2c0.9 0 1.3-0.4 1.3-1.3h0.4v3.1h-0.4c0-0.8-0.4-1.4-1.3-1.4h-1.2v3.3c0 1.2 0.6 1.3 1.9 1.3 2.1 0 2-0.6 2.7-2.1h0.4l-0.4 2.6h-7.1V255.9L146.9 255.9zM166 256.2c-2.3-2.7-4.7-5.6-7-8.4v6.4c0 0.3 0.1 0.6 0.1 0.8 0.1 0.5 0.6 0.7 1.5 0.8v0.4h-3.5v-0.4c0.7-0.1 1.2-0.3 1.3-0.8 0-0.2 0.1-0.5 0.1-0.8v-6.8c-0.4-0.5-0.8-1-1.7-1v-0.4h2.6c2.2 2.6 4.4 5.3 6.6 7.9h0v-6c0-0.3-0.1-0.5-0.1-0.8 -0.1-0.5-0.6-0.7-1.5-0.8v-0.4h3.6v0.4c-0.7 0.1-1.2 0.3-1.2 0.8 0 0.2-0.1 0.5-0.1 0.8v8.2H166L166 256.2zM179 256.2c-2.3-2.7-4.7-5.6-7-8.4v6.4c0 0.3 0.1 0.6 0.1 0.8 0.1 0.5 0.6 0.7 1.5 0.8v0.4h-3.5v-0.4c0.7-0.1 1.2-0.3 1.2-0.8 0-0.2 0.1-0.5 0.1-0.8v-6.8c-0.4-0.5-0.8-1-1.7-1v-0.4h2.6c2.2 2.6 4.4 5.3 6.6 7.9h0v-6c0-0.3-0.1-0.5-0.1-0.8 -0.1-0.5-0.6-0.7-1.5-0.8v-0.4h3.6v0.4c-0.7 0.1-1.2 0.3-1.2 0.8 0 0.2-0.1 0.5-0.1 0.8v8.2H179L179 256.2zM188.4 248.3c-0.1-1-0.7-1.8-1.8-1.8 -0.8 0-1.6 0.4-1.6 1.5 0 1 1 1.6 2.5 2.7 1.5 1.2 2 1.9 2 3.1 0 1.7-1.8 2.7-3.5 2.7 -0.9 0-1.7-0.2-2.5-0.5 0 0-0.1-0.1-0.1-0.2v-2.1h0.4c0.2 1.6 1.2 2.2 2.3 2.2 1 0 1.9-0.8 1.9-1.8 0-0.9-0.5-1.7-2.7-3.1 -0.8-0.5-1.7-1.1-1.7-2.7 0-1.3 1.5-2.3 3.1-2.3 0.6 0 1.5 0.1 2 0.3 0.1 0 0.1 0.1 0.1 0.2v1.9H188.4L188.4 248.3zM194.3 255.9c1.3-0.2 1.3-0.1 1.3-1.4v-2.2l-2.2-4.4c-0.5-0.9-0.9-1.3-1.5-1.3v-0.4h3.7v0.4c-1.1 0-1 0.6-0.6 1.3l1.8 3.6 2-3.6c0.5-0.9 0-1.3-0.8-1.3v-0.4h3v0.4c-0.4 0-0.8 0.2-1.2 0.9l-2.4 4.4c-0.1 0.3-0.2 0.7-0.2 1.1v1.6c0 1.4-0.1 1.3 1.2 1.4v0.4h-3.9V255.9L194.3 255.9zM203.1 255.9c1.3-0.2 1.3-0.1 1.3-1.4v-6.5c0-1.3 0.1-1.3-1.2-1.4v-0.4h3.9v0.4c-1.3 0.2-1.2 0.1-1.2 1.4v6.8c0 1 0.6 1.1 1.9 1.1 2.1 0 2-0.6 2.7-2.1h0.4l-0.4 2.6h-7.1V255.9L203.1 255.9zM215.7 246.5c-0.8 0-1.4 0.2-0.9 1.6 0.6 1.7 1.4 4.2 2.2 6.4 0.9-2.2 1.8-4.4 2.7-6.7 0.4-0.9 0-1.4-1-1.4v-0.4h3.1v0.4c-0.4 0-0.9 0.2-1.2 0.9 -1.2 3-2.4 5.9-3.7 8.9h-0.7c-0.9-2.5-1.9-5.3-2.7-7.8 -0.5-1.5-1-2-1.7-2v-0.4h3.9V246.5L215.7 246.5zM227.7 252.3l-1.5-4.7h0l-1.7 4.7H227.7L227.7 252.3zM224.2 252.9l-0.7 1.9c-0.2 0.6 0.1 1 0.7 1v0.4h-2.6v-0.4c0.4 0 0.8-0.2 1-0.7 0.6-1.3 2.3-6 3.5-9.2h0.8c1 2.9 2.5 7.4 3 8.7 0.3 0.8 0.6 1.3 1.2 1.3v0.4h-3.4v-0.4c0.9 0 1-0.5 0.8-1.1l-0.6-1.9H224.2L224.2 252.9zM242.3 256.2c-2.3-2.7-4.7-5.6-7.1-8.4v6.4c0 0.3 0.1 0.6 0.1 0.8 0.1 0.5 0.6 0.7 1.5 0.8v0.4h-3.5v-0.4c0.7-0.1 1.2-0.3 1.3-0.8 0-0.2 0.1-0.5 0.1-0.8v-6.8c-0.4-0.5-0.9-1-1.7-1v-0.4h2.6c2.2 2.6 4.4 5.3 6.6 7.9h0v-6c0-0.3 0-0.5-0.1-0.8 -0.1-0.5-0.6-0.7-1.5-0.8v-0.4h3.6v0.4c-0.7 0.1-1.2 0.3-1.2 0.8 0 0.2-0.1 0.5-0.1 0.8v8.2H242.3L242.3 256.2zM249.1 254.4c0 1.4-0.1 1.3 1.3 1.4v0.4h-3.9v-0.4c1.3-0.2 1.3-0.1 1.3-1.4v-6.5c0-1.3 0.1-1.3-1.2-1.4v-0.4h3.9v0.4c-1.3 0.2-1.2 0.1-1.2 1.4V254.4L249.1 254.4zM258.7 252.3l-1.5-4.7h0l-1.7 4.7H258.7L258.7 252.3zM255.2 252.9l-0.7 1.9c-0.2 0.6 0.1 1 0.7 1v0.4h-2.6v-0.4c0.4 0 0.8-0.2 1-0.7 0.6-1.3 2.3-6 3.5-9.2h0.8c1 2.9 2.5 7.4 3 8.7 0.3 0.8 0.6 1.3 1.2 1.3v0.4h-3.4v-0.4c0.9 0 1-0.5 0.8-1.1l-0.6-1.9H255.2L255.2 252.9z" fill="#231F20"/></svg>